<svg width="24" height="24" viewBox="0 0 24 24" fill="none" xmlns="http://www.w3.org/2000/svg">
    <path fill-rule="evenodd" clip-rule="evenodd"
        d="M2.2375 2.2375C2.39375 2.08125 2.59531 2 2.8 2C3.00469 2 3.20625 2.08125 3.3625 2.2375L11.275 10.15C11.5 10.0609 11.7422 10 12 10C13.1031 10 14 10.8969 14 12C14 12.2578 13.9391 12.5 13.85 12.725L15.625 14.5C16.1297 13.7688 16.4 12.8969 16.4 12C16.4 10.9203 16.0094 9.88906 15.3 9.0875C15.0078 8.75625 15.0312 8.24219 15.3625 7.95C15.6938 7.65625 16.2078 7.69531 16.5 8.025C17.4703 9.12031 18 10.5297 18 12C18 13.3203 17.5594 14.5938 16.7625 15.6375L18.5375 17.4125C19.7437 15.8703 20.4 13.9734 20.4 12C20.4 9.82813 19.6141 7.74844 18.175 6.1375C17.8797 5.80781 17.9078 5.29375 18.2375 5C18.5672 4.70469 19.0688 4.74531 19.3625 5.075C21.0641 6.97969 22 9.43594 22 12C22 14.3953 21.1766 16.7016 19.675 18.55L21.7625 20.6375C22.075 20.95 22.075 21.45 21.7625 21.7625C21.6063 21.9188 21.4047 22 21.2 22C20.9953 22 20.7938 21.9188 20.6375 21.7625L10.1375 11.275C10.1383 11.2734 10.1379 11.2711 10.1375 11.2687C10.1371 11.2664 10.1367 11.2641 10.1375 11.2625L8.375 9.5125C8.37578 9.51094 8.37539 9.50859 8.375 9.50625C8.37461 9.50391 8.37422 9.50156 8.375 9.5L5.4625 6.6C5.46328 6.59844 5.46289 6.59609 5.4625 6.59375C5.46211 6.59141 5.46172 6.58906 5.4625 6.5875L4.325 5.4625C4.32578 5.46094 4.32539 5.45859 4.325 5.45625C4.32461 5.45391 4.32422 5.45156 4.325 5.45L2.2375 3.3625C1.925 3.05 1.925 2.55 2.2375 2.2375ZM2 12C2 9.87969 2.64688 7.82656 3.8375 6.1L5 7.2625C4.09844 8.67031 3.6 10.3047 3.6 12C3.6 14.175 4.39375 16.2625 5.8375 17.875C6.13281 18.2031 6.10469 18.7047 5.775 19C5.62188 19.1375 5.44062 19.2125 5.25 19.2125C5.02969 19.2125 4.80781 19.1141 4.65 18.9375C2.94219 17.0312 2 14.5703 2 12ZM6.7875 9.05C6.28125 9.94531 6 10.9563 6 12C6 13.4891 6.54688 14.9125 7.5375 16.0125C7.69531 16.1875 7.90625 16.275 8.125 16.275C8.31563 16.275 8.50938 16.2125 8.6625 16.075C8.99063 15.7797 9.02031 15.2656 8.725 14.9375C8 14.1328 7.6 13.0922 7.6 12C7.6 11.3875 7.73281 10.7906 7.975 10.2375L6.7875 9.05ZM10.025 12.2875C10.1531 13.1547 10.8453 13.8469 11.7125 13.975L10.025 12.2875Z"
        fill="#FFFFFF" />
</svg>
