<svg width="24" height="24" viewBox="0 0 24 24" fill="none" xmlns="http://www.w3.org/2000/svg">
<path d="M20.612 6.834L16.59 9.146V8.4C16.59 7.76348 16.3371 7.15303 15.8871 6.70294C15.437 6.25286 14.8265 6 14.19 6H4.4C3.76348 6 3.15303 6.25286 2.70294 6.70294C2.25286 7.15303 2 7.76348 2 8.4L2 15.872C2 16.5085 2.25286 17.119 2.70294 17.5691C3.15303 18.0191 3.76348 18.272 4.4 18.272H14.19C14.8265 18.272 15.437 18.0191 15.8871 17.5691C16.3371 17.119 16.59 16.5085 16.59 15.872V15.126L20.612 17.438C21.374 17.876 22 17.516 22 16.638V7.638C22 6.756 21.376 6.396 20.612 6.834Z" fill="#065CAB"/>
</svg>
