<svg width="56" height="56" viewBox="0 0 56 56" fill="none" xmlns="http://www.w3.org/2000/svg">
    <path
        d="M41.199 14.801C33.9089 7.51085 22.0901 7.51085 14.8 14.801C7.51032 22.0906 7.51076 33.909 14.8009 41.1991C22.0905 48.4892 33.9093 48.4892 41.1985 41.1995C48.4886 33.909 48.4891 22.0906 41.199 14.801ZM38.7315 17.2685C43.8233 22.3603 44.5363 30.1701 40.8783 36.0281L19.9722 15.1221C25.8298 11.4632 33.6387 12.1757 38.7315 17.2685ZM17.2688 38.7311C12.1761 33.6388 11.4635 25.8299 15.1211 19.9723L36.0267 40.8779C30.1696 44.536 22.3607 43.8234 17.2688 38.7311Z"
        fill="#FFFFFF" />
</svg>
